<svg width="1259" height="172" viewBox="0 0 1259 172" fill="none" xmlns="http://www.w3.org/2000/svg">
<rect x="6.5" y="4.5" width="1250" height="163" rx="10.5" fill="#FBFBFB" stroke="#A0C6FF"/>
<mask id="mask0" mask-type="alpha" maskUnits="userSpaceOnUse" x="7" y="5" width="1250" height="161">
<rect x="7.5" y="5.5" width="1249" height="160" rx="10.5" fill="#FBFBFB" stroke="#A0C6FF"/>
</mask>
<g mask="url(#mask0)">
<circle cx="55.5" cy="119.5" r="15.5" fill="#C7DFF1"/>
<circle cx="272.5" cy="93.5" r="15.5" fill="#C7DFF1"/>
<circle cx="95.5" cy="120.5" r="15.5" fill="#93C0EA"/>
<circle cx="115.5" cy="4.5" r="15.5" fill="#EAF5FF"/>
<circle cx="164.5" cy="57.5" r="15.5" fill="#EAF5FF"/>
<circle cx="77.5" cy="4.5" r="15.5" fill="#F2F9FF"/>
<circle cx="160.5" cy="138.5" r="15.5" fill="#F2F9FF"/>
<circle cx="214.5" cy="104.5" r="15.5" fill="#F2F9FF"/>
<circle cx="333.5" cy="127.5" r="15.5" fill="#F2F9FF"/>
<circle cx="13.5" cy="43.5" r="15.5" fill="#F2F9FF"/>
<circle cx="124.5" cy="56.5" r="15.5" fill="#BDDFFF"/>
<circle cx="115.5" cy="4.5" r="15.5" fill="#EAF5FF"/>
<circle cx="202.5" cy="4.5" r="15.5" fill="#EAF5FF"/>
<circle cx="337.5" cy="4.5" r="15.5" fill="#EAF5FF"/>
<circle cx="124.5" cy="56.5" r="15.5" fill="#BDDFFF"/>
<circle cx="415.5" cy="74.5" r="15.5" fill="#EAF5FF"/>
<circle cx="375.5" cy="73.5" r="15.5" fill="#BDDFFF"/>
<circle cx="415.5" cy="74.5" r="15.5" fill="#EAF5FF"/>
<circle cx="375.5" cy="73.5" r="15.5" fill="#BDDFFF"/>
<circle cx="415.5" cy="116.5" r="15.5" transform="rotate(-180 415.5 116.5)" fill="#EAF5FF"/>
<circle cx="455.5" cy="117.5" r="15.5" transform="rotate(-180 455.5 117.5)" fill="#BDDFFF"/>
<circle cx="375.5" cy="4.5" r="15.5" fill="#BDDFFF"/>
<circle cx="273.5" cy="54.5" r="15.5" fill="#EAF5FF"/>
<circle cx="235.5" cy="54.5" r="15.5" fill="#BDDFFF"/>
<circle cx="562.5" cy="119.5" r="15.5" fill="#C7DFF1"/>
<circle cx="480.5" cy="43.5" r="15.5" fill="#C7DFF1"/>
<circle cx="779.5" cy="93.5" r="15.5" fill="#C7DFF1"/>
<circle cx="602.5" cy="120.5" r="15.5" fill="#93C0EA"/>
<circle cx="622.5" cy="4.5" r="15.5" fill="#EAF5FF"/>
<circle cx="671.5" cy="57.5" r="15.5" fill="#EAF5FF"/>
<circle cx="584.5" cy="4.5" r="15.5" fill="#F2F9FF"/>
<circle cx="667.5" cy="138.5" r="15.5" fill="#F2F9FF"/>
<circle cx="721.5" cy="104.5" r="15.5" fill="#F2F9FF"/>
<circle cx="840.5" cy="127.5" r="15.5" fill="#F2F9FF"/>
<circle cx="520.5" cy="43.5" r="15.5" fill="#F2F9FF"/>
<circle cx="631.5" cy="56.5" r="15.5" fill="#BDDFFF"/>
<circle cx="622.5" cy="4.5" r="15.5" fill="#EAF5FF"/>
<circle cx="709.5" cy="4.5" r="15.5" fill="#EAF5FF"/>
<circle cx="844.5" cy="4.5" r="15.5" fill="#EAF5FF"/>
<circle cx="631.5" cy="56.5" r="15.5" fill="#BDDFFF"/>
<circle cx="520.5" cy="86.5" r="15.5" fill="#BDDFFF"/>
<circle cx="962.5" cy="4.5" r="15.5" fill="#EAF5FF"/>
<circle cx="1040.5" cy="74.5" r="15.5" fill="#EAF5FF"/>
<circle cx="1000.5" cy="73.5" r="15.5" fill="#BDDFFF"/>
<circle cx="1040.5" cy="74.5" r="15.5" fill="#EAF5FF"/>
<circle cx="1000.5" cy="73.5" r="15.5" fill="#BDDFFF"/>
<circle cx="1040.5" cy="116.5" r="15.5" transform="rotate(-180 1040.5 116.5)" fill="#EAF5FF"/>
<circle cx="1080.5" cy="117.5" r="15.5" transform="rotate(-180 1080.5 117.5)" fill="#BDDFFF"/>
<circle cx="1000.5" cy="4.5" r="15.5" fill="#BDDFFF"/>
<circle cx="1187.5" cy="119.5" r="15.5" fill="#C7DFF1"/>
<circle cx="1105.5" cy="43.5" r="15.5" fill="#C7DFF1"/>
<circle cx="1227.5" cy="120.5" r="15.5" fill="#93C0EA"/>
<circle cx="1157.5" cy="4.5" r="15.5" fill="#F2F9FF"/>
<circle cx="1145.5" cy="43.5" r="15.5" fill="#F2F9FF"/>
<circle cx="1256.5" cy="56.5" r="15.5" fill="#BDDFFF"/>
<circle cx="1195.5" cy="4.5" r="15.5" fill="#EAF5FF"/>
<circle cx="1256.5" cy="56.5" r="15.5" fill="#BDDFFF"/>
<circle cx="1145.5" cy="86.5" r="15.5" fill="#BDDFFF"/>
<circle cx="922.5" cy="74.5" r="15.5" fill="#EAF5FF"/>
<circle cx="882.5" cy="73.5" r="15.5" fill="#BDDFFF"/>
<circle cx="922.5" cy="74.5" r="15.5" fill="#EAF5FF"/>
<circle cx="882.5" cy="73.5" r="15.5" fill="#BDDFFF"/>
<circle cx="922.5" cy="116.5" r="15.5" transform="rotate(-180 922.5 116.5)" fill="#EAF5FF"/>
<circle cx="962.5" cy="117.5" r="15.5" transform="rotate(-180 962.5 117.5)" fill="#BDDFFF"/>
<circle cx="882.5" cy="4.5" r="15.5" fill="#BDDFFF"/>
<circle cx="780.5" cy="54.5" r="15.5" fill="#EAF5FF"/>
<circle cx="742.5" cy="54.5" r="15.5" fill="#BDDFFF"/>
</g>
</svg>
