<svg width="1169" height="531" viewBox="0 0 1169 531" fill="none" xmlns="http://www.w3.org/2000/svg">
<g clip-path="url(#clip0)">
<path d="M538.965 463.931C810.92 460.228 1031.11 437.242 1030.78 412.589C1030.44 387.937 809.705 370.954 537.75 374.657C265.795 378.36 45.6041 401.346 45.9397 425.998C46.2753 450.651 267.01 467.634 538.965 463.931Z" fill="#97999C"/>
<path d="M469.48 404.839C416.174 404.839 337.609 404.84 237.97 406.334C236.101 388.535 231.038 371.218 223.025 355.216C213.908 337.18 203.097 316.055 178.835 304.745C169.034 300.195 158.405 297.701 147.603 297.417C136.801 297.133 126.055 299.064 116.028 303.093C106.001 307.122 96.9064 313.162 89.3036 320.841C81.7009 328.52 75.7518 337.676 71.8231 347.743C63.2044 371.01 72.8694 383.715 63.1546 392.583C48.2088 406.733 6.01166 393.181 5.01527 381.223C4.66654 376.739 10.346 376.241 16.2745 368.419C29.078 351.927 19.4131 334.589 22.5518 293.685C23.9965 274.503 26.4374 265.684 31.0208 256.218C34.259 249.442 40.387 244.659 78.5486 233.897C108.042 225.577 132.005 220.644 157.462 215.264C182.92 209.883 190.592 210.281 197.318 207.74C198.214 207.391 200.058 206.594 202.3 205.449C228.604 192.843 283.106 153.134 299.447 141.825C328.94 121.447 345.729 109.839 372.532 103.063C402.472 96.5919 433.082 93.7481 463.702 94.5928C466.043 94.5928 473.666 95.1408 483.629 94.5928C500.319 93.8952 510.93 90.7064 604.64 87.2188C661.285 85.1262 708.813 84.4288 761.97 83.6317C810.693 82.8843 851.644 82.5855 880.539 82.4858C883.941 82.8421 887.287 83.6115 890.503 84.7775C899.392 88.3512 907.154 94.2546 912.972 101.867C934.942 127.675 935.44 123.141 946.799 139.383C958.158 155.626 965.481 174.608 980.178 212.772C985.543 226.157 989.938 239.911 993.33 253.926C996.401 265.781 998.073 277.954 998.312 290.197C998.312 295.528 998.312 300.162 997.864 303.201C1001.31 305.303 1004.33 308.022 1006.78 311.222C1011.37 317.251 1012.26 323.03 1013.66 333.692C1015.21 345.186 1014.81 356.861 1012.46 368.22C1012.23 371.167 1011.34 374.027 1009.87 376.59C1004.64 384.86 992.932 386.056 988 386.554C931.056 392.533 911.826 402.199 901.812 389.494C895.435 381.373 901.812 375.743 896.83 356.96C892.126 340.805 882.472 326.534 869.23 316.155C857.86 308.315 844.606 303.647 830.832 302.631C817.058 301.615 803.262 304.288 790.865 310.375C781.17 315.245 772.559 322.022 765.548 330.301C758.537 338.58 753.27 348.19 750.063 358.554C745.081 375.743 750.063 382.469 744.533 391.387C732.527 410.121 694.415 403.644 660.139 400.306C650.673 399.758 691.425 404.989 469.48 404.839Z" fill="#EDEDEE"/>
<path d="M142.716 440.91C179.117 440.91 208.626 411.399 208.626 374.995C208.626 338.591 179.117 309.079 142.716 309.079C106.314 309.079 76.8047 338.591 76.8047 374.995C76.8047 411.399 106.314 440.91 142.716 440.91Z" fill="#66A4BF"/>
<path d="M823.048 442.007C859.45 442.007 888.959 412.495 888.959 376.091C888.959 339.687 859.45 310.176 823.048 310.176C786.646 310.176 757.137 339.687 757.137 376.091C757.137 412.495 786.646 442.007 823.048 442.007Z" fill="#66A4BF"/>
<path d="M443.525 116.515C421.554 112.214 398.86 113.412 377.464 120.003C345.132 130.465 331.382 149.896 295.362 176.801C270.481 195.23 243.65 210.869 215.352 223.435L443.027 214.267C443.093 181.683 443.259 149.099 443.525 116.515Z" fill="#87CDB5"/>
<path d="M890.354 85.0762C893.232 68.7004 901.532 53.7676 913.919 42.6771C927.52 31.3674 941.818 30.2215 961.596 26.5347C1048.83 10.2925 1038.47 8.20011 1055.26 8.00082C1089.32 7.90625 1122.91 15.9878 1153.2 31.5668C1146.5 38.3554 1138.97 44.2654 1130.78 49.1543C1112.15 59.9551 1090.88 65.3707 1069.36 64.7984C1058.26 61.1205 1046.77 58.7791 1035.13 57.8234C1010.77 55.8803 993.779 60.165 941.021 72.7701L890.354 85.0762Z" fill="#EDEDEE"/>
<path d="M926.269 67.6568L921.566 69.1416L947.228 150.434L951.931 148.949L926.269 67.6568Z" fill="#EDEDEE"/>
<path d="M619.288 396.868L499.372 399.907C492.765 399.907 486.429 397.282 481.758 392.61C477.086 387.939 474.462 381.602 474.462 374.995L468.434 133.554C468.134 127.011 470.424 120.613 474.806 115.746C479.188 110.878 485.311 107.933 491.849 107.547L611.765 104.458C618.372 104.458 624.707 107.082 629.379 111.754C634.05 116.426 636.675 122.762 636.675 129.369L642.803 370.81C642.938 377.471 640.574 383.941 636.177 388.946C634.04 391.335 631.442 393.268 628.54 394.629C625.638 395.991 622.491 396.752 619.288 396.868Z" fill="white"/>
<path d="M37.248 252.382C40.835 251.086 43.7745 253.727 54.2366 252.382C56.7773 252.033 60.8129 251.335 62.5566 253.478C63.1526 254.282 63.4515 255.268 63.4031 256.268C63.4031 262.595 52.0446 285.115 50.5999 288.005L30.0245 295.478C27.0851 273.457 29.5758 255.321 37.248 252.382Z" fill="#FEC671"/>
<path d="M976.591 252.73C968.775 251.302 960.736 251.659 953.077 253.776L955.119 284.866C960.061 285.163 964.939 286.135 969.617 287.755C978.765 290.883 987.01 296.203 993.629 303.25C999.608 282.076 997.864 263.093 988.1 256.666C984.532 254.671 980.633 253.338 976.591 252.73Z" fill="#F79464"/>
<path d="M444.72 368.668L264.275 372.304C257.5 372.304 251.82 369.564 251.77 365.927C251.721 362.29 257.2 359.201 263.976 359.101L444.421 355.415C451.247 355.415 456.876 358.155 456.925 361.792C456.975 365.429 451.495 368.518 444.72 368.668Z" fill="#C7C8CA"/>
<path d="M438.144 249.193L395.748 250.089C394.154 250.089 392.809 247.15 392.709 243.513C392.61 239.876 393.905 236.886 395.499 236.837L437.845 235.99C439.439 235.99 440.834 238.879 440.884 242.517C440.934 246.154 439.738 249.193 438.144 249.193Z" fill="#C7C8CA"/>
<path d="M654.709 99.3259L887.315 95.1406C887.34 127.537 891.305 159.81 899.122 191.249C899.122 191.249 911.178 241.669 904.104 265.335C898.016 285.222 887.546 303.49 873.466 318.795C864.648 330.005 856.776 349.934 862.057 387.899L661.784 391.736C659.641 347.543 658.395 310.375 657.598 282.574C656.203 232.751 655.655 190.452 655.207 149.398C654.958 128.671 654.809 111.433 654.709 99.3259Z" fill="#D8D9DA"/>
<path d="M666.566 108.643L854.534 104.258C866.099 113.824 874.701 126.485 879.333 140.761C883.965 155.038 884.435 170.338 880.689 184.872L667.712 195.384L666.566 108.643Z" fill="#87CDB5"/>
<path d="M714.493 224.78L672.146 225.626C670.552 225.626 669.157 222.687 669.107 219.1C669.057 215.512 670.252 212.423 671.847 212.423L714.243 211.526C715.837 211.526 717.232 214.466 717.282 218.103C717.332 221.74 716.137 224.73 714.493 224.78Z" fill="#C7C8CA"/>
<path d="M642.802 380.276C645.924 421.33 649.079 462.401 652.268 503.488C652.178 505.945 651.603 508.359 650.576 510.592C649.55 512.825 648.091 514.833 646.285 516.5C644.479 518.168 642.362 519.461 640.054 520.306C637.746 521.151 635.293 521.531 632.838 521.424L490.455 524.364C485.57 524.71 480.743 523.123 477.016 519.945C473.289 516.768 470.959 512.253 470.527 507.374C471.789 465.855 473.002 424.336 474.164 382.817" fill="#3879AA"/>
<path d="M642.802 366.276C642.802 373.052 643.25 379.878 643.449 386.704L474.064 392.035L474.363 371.657L642.802 366.276Z" fill="#3586A3"/>
<path d="M612.91 407.779L617.145 503.937C617.254 504.842 617.175 505.759 616.912 506.632C616.65 507.505 616.21 508.315 615.621 509.01C615.031 509.705 614.305 510.272 613.487 510.674C612.669 511.075 611.776 511.304 610.866 511.345C609.955 511.386 609.046 511.239 608.195 510.913C607.344 510.587 606.569 510.089 605.919 509.45C605.27 508.81 604.759 508.044 604.418 507.198C604.078 506.353 603.916 505.446 603.942 504.535L599.708 408.377C599.756 406.705 600.435 405.113 601.607 403.921C602.78 402.728 604.36 402.023 606.031 401.948C607.702 401.872 609.34 402.431 610.616 403.513C611.892 404.594 612.711 406.118 612.91 407.779Z" fill="#66A4BF"/>
<path d="M521.144 409.971L520.546 506.229C520.52 507.982 519.805 509.655 518.556 510.885C517.307 512.116 515.623 512.805 513.87 512.805C512.121 512.792 510.448 512.088 509.217 510.847C507.985 509.606 507.293 507.928 507.293 506.179L507.941 409.871C508.085 408.219 508.842 406.681 510.064 405.561C511.286 404.441 512.884 403.819 514.542 403.819C516.2 403.819 517.798 404.441 519.02 405.561C520.243 406.681 521 408.219 521.144 409.871V409.971Z" fill="#66A4BF"/>
</g>
<defs>
<clipPath id="clip0">
<rect width="1169" height="531" fill="white"/>
</clipPath>
</defs>
</svg>
