<svg width="342" height="337" viewBox="0 0 342 337" fill="none" xmlns="http://www.w3.org/2000/svg">
<g filter="url(#filter0_f)">
<rect x="37" y="30" width="275" height="277" rx="68" fill="#E8EAEE" fill-opacity="0.26"/>
</g>
<rect x="37" y="34" width="275" height="264" rx="68" fill="white" fill-opacity="0.49"/>
<g filter="url(#filter1_d)">
<rect x="65" y="56" width="218" height="220" rx="68" fill="#FBFBFB"/>
</g>
<rect x="34" y="27" width="281" height="283" rx="72" fill="url(#paint0_radial)"/>
<g filter="url(#filter2_d)">
<rect x="86" y="77" width="176" height="178" rx="72" fill="white"/>
</g>
<path d="M175 215C202.062 215 224 193.062 224 166C224 138.938 202.062 117 175 117C147.938 117 126 138.938 126 166C126 193.062 147.938 215 175 215Z" fill="#007BA8"/>
<path d="M175 206C197.091 206 215 188.091 215 166C215 143.909 197.091 126 175 126C152.909 126 135 143.909 135 166C135 188.091 152.909 206 175 206Z" fill="#9EB1C0"/>
<path d="M168.114 148.66C165.686 149.711 162.771 148.134 159.857 146.556C158.4 145.505 155 143.402 155 140.773C155 139.196 156.943 138.144 162.286 135.516C166.171 133.413 169.086 132.361 171.029 133.413C172.486 134.464 172 137.093 171.514 139.722C170.543 144.979 170.057 147.608 168.114 148.66Z" fill="#1694A9"/>
<path d="M180.114 148.66C182.686 149.711 185.771 148.134 188.857 146.556C190.4 145.505 194 143.402 194 140.773C194 139.196 191.943 138.144 186.286 135.516C182.171 133.413 179.086 132.361 177.029 133.413C175.486 134.464 176 137.093 176.514 139.722C177.029 144.979 178.057 147.608 180.114 148.66Z" fill="#1694A9"/>
<path d="M157.66 172.886C158.711 175.314 157.134 178.229 155.556 181.143C154.505 182.6 152.402 186 149.773 186C148.196 186 147.144 184.057 144.516 178.714C142.413 174.829 141.361 171.914 142.413 169.971C143.464 168.514 146.093 169 148.722 169.486C153.979 170.457 156.608 170.943 157.66 172.886Z" fill="#1694A9"/>
<path d="M157.66 160.886C158.711 158.314 157.134 155.229 155.556 152.143C154.505 150.6 152.402 147 149.773 147C148.196 147 147.144 149.057 144.516 154.714C142.413 158.829 141.361 161.914 142.413 163.971C143.464 165.514 146.093 165 148.722 164.486C153.979 163.457 156.608 162.943 157.66 160.886Z" fill="#1694A9"/>
<path d="M180.114 183.34C182.686 182.289 185.771 183.866 188.857 185.444C190.4 186.495 194 188.598 194 191.227C194 192.804 191.943 193.856 186.286 196.484C182.171 198.587 179.086 199.639 177.029 198.587C175.486 197.536 176 194.907 176.514 192.278C177.543 187.021 178.571 184.392 180.114 183.34Z" fill="#1694A9"/>
<path d="M168.114 183.34C165.686 182.289 162.771 183.866 159.857 185.444C158.4 186.495 155 188.598 155 191.227C155 192.804 156.943 193.856 162.286 196.484C166.171 198.587 169.086 199.639 171.029 198.587C172.486 197.536 172 194.907 171.514 192.278C171.029 187.021 170.057 184.392 168.114 183.34Z" fill="#1694A9"/>
<path d="M192.34 171.886C191.289 174.314 192.866 177.229 194.444 180.143C195.495 181.6 197.598 185 200.227 185C201.804 185 202.856 183.057 205.484 177.714C207.587 173.829 208.639 170.914 207.587 168.971C206.536 167.514 203.907 168 201.278 168.486C196.021 169.457 193.392 169.943 192.34 171.886Z" fill="#1694A9"/>
<path d="M192.34 160.114C191.289 157.686 192.866 154.771 194.444 151.857C195.495 150.4 197.598 147 200.227 147C201.804 147 202.856 148.943 205.484 154.286C207.587 158.171 208.639 161.086 207.587 163.029C206.536 164.486 203.907 164 201.278 163.514C196.021 163.029 193.392 162.057 192.34 160.114Z" fill="#1694A9"/>
<path d="M175 178C181.627 178 187 172.627 187 166C187 159.373 181.627 154 175 154C168.373 154 163 159.373 163 166C163 172.627 168.373 178 175 178Z" fill="white"/>
<defs>
<filter id="filter0_f" x="33" y="26" width="283" height="285" filterUnits="userSpaceOnUse" color-interpolation-filters="sRGB">
<feFlood flood-opacity="0" result="BackgroundImageFix"/>
<feBlend mode="normal" in="SourceGraphic" in2="BackgroundImageFix" result="shape"/>
<feGaussianBlur stdDeviation="2" result="effect1_foregroundBlur"/>
</filter>
<filter id="filter1_d" x="49" y="44" width="250" height="252" filterUnits="userSpaceOnUse" color-interpolation-filters="sRGB">
<feFlood flood-opacity="0" result="BackgroundImageFix"/>
<feColorMatrix in="SourceAlpha" type="matrix" values="0 0 0 0 0 0 0 0 0 0 0 0 0 0 0 0 0 0 127 0"/>
<feMorphology radius="9" operator="erode" in="SourceAlpha" result="effect1_dropShadow"/>
<feOffset dy="4"/>
<feGaussianBlur stdDeviation="12.5"/>
<feColorMatrix type="matrix" values="0 0 0 0 0.479601 0 0 0 0 0.576672 0 0 0 0 0.920833 0 0 0 0.71 0"/>
<feBlend mode="normal" in2="BackgroundImageFix" result="effect1_dropShadow"/>
<feBlend mode="normal" in="SourceGraphic" in2="effect1_dropShadow" result="shape"/>
</filter>
<filter id="filter2_d" x="59" y="60" width="230" height="232" filterUnits="userSpaceOnUse" color-interpolation-filters="sRGB">
<feFlood flood-opacity="0" result="BackgroundImageFix"/>
<feColorMatrix in="SourceAlpha" type="matrix" values="0 0 0 0 0 0 0 0 0 0 0 0 0 0 0 0 0 0 127 0"/>
<feMorphology radius="1" operator="erode" in="SourceAlpha" result="effect1_dropShadow"/>
<feOffset dy="10"/>
<feGaussianBlur stdDeviation="14"/>
<feColorMatrix type="matrix" values="0 0 0 0 0.8 0 0 0 0 0.803922 0 0 0 0 0.913725 0 0 0 1 0"/>
<feBlend mode="normal" in2="BackgroundImageFix" result="effect1_dropShadow"/>
<feBlend mode="normal" in="SourceGraphic" in2="effect1_dropShadow" result="shape"/>
</filter>
<radialGradient id="paint0_radial" cx="0" cy="0" r="1" gradientUnits="userSpaceOnUse" gradientTransform="translate(174.5 168.5) rotate(89.809) scale(150.001 148.941)">
<stop stop-color="#7A93EB" stop-opacity="0.22"/>
<stop offset="1" stop-color="#7A93EB" stop-opacity="0"/>
</radialGradient>
</defs>
</svg>
