<svg width="342" height="337" viewBox="0 0 342 337" fill="none" xmlns="http://www.w3.org/2000/svg">
<g filter="url(#filter0_f)">
<rect x="37" y="30" width="275" height="277" rx="68" fill="#E8EAEE" fill-opacity="0.26"/>
</g>
<rect x="37" y="34" width="275" height="264" rx="68" fill="white" fill-opacity="0.49"/>
<g filter="url(#filter1_d)">
<rect x="65" y="56" width="218" height="220" rx="68" fill="#FBFBFB"/>
</g>
<rect x="34" y="27" width="281" height="283" rx="72" fill="url(#paint0_radial)"/>
<g filter="url(#filter2_d)">
<rect x="86" y="77" width="176" height="178" rx="72" fill="white"/>
</g>
<path d="M182.213 210.815H155.03C150.151 210.815 147.363 211.513 147.363 212.908V213.605C148.06 214.302 148.757 214.302 150.848 215H182.213C187.092 215 189.88 214.302 189.88 212.908C189.88 211.513 186.395 210.815 182.213 210.815Z" fill="#696969"/>
<path d="M165.484 201.749H142.483C138.998 201.749 135.513 202.446 135.513 203.841V204.538C136.21 205.236 136.907 205.236 139.695 205.933H164.787C168.271 205.933 171.756 205.236 171.756 203.841C171.756 202.446 168.272 201.749 165.484 201.749Z" fill="#696969"/>
<path d="M131.331 204.539C132.871 204.539 134.119 203.602 134.119 202.447C134.119 201.291 132.871 200.354 131.331 200.354C129.792 200.354 128.543 201.291 128.543 202.447C128.543 203.602 129.792 204.539 131.331 204.539Z" fill="#696969"/>
<path d="M189.878 215C216.054 215 237.273 193.768 237.273 167.577C237.273 141.386 216.054 120.154 189.878 120.154C163.703 120.154 142.483 141.386 142.483 167.577C142.483 193.768 163.703 215 189.878 215Z" fill="#007BA8"/>
<path d="M189.881 205.236C210.667 205.236 227.518 188.375 227.518 167.576C227.518 146.777 210.667 129.917 189.881 129.917C169.094 129.917 152.244 146.777 152.244 167.576C152.244 188.375 169.094 205.236 189.881 205.236Z" fill="#9EB1C0"/>
<path d="M182.911 150.141C180.82 151.536 178.032 150.141 174.547 148.049C173.153 147.352 169.668 145.26 169.668 143.167C169.668 141.773 171.062 140.378 176.638 138.286C180.82 136.193 183.608 135.496 185.002 136.193C186.396 136.891 185.699 139.68 185.699 142.47C185.699 147.352 185.002 149.793 182.911 150.141Z" fill="#1694A9"/>
<path d="M194.758 150.141C196.849 151.536 199.637 150.141 203.122 148.049C204.516 147.352 208.001 145.26 208.001 143.167C208.001 141.773 206.607 140.378 201.031 138.286C196.849 136.193 194.061 135.496 192.667 136.193C191.273 136.891 191.97 139.68 191.97 142.47C191.97 147.352 192.667 149.793 194.758 150.141Z" fill="#1694A9"/>
<path d="M173.153 173.853C174.547 175.945 173.153 178.734 171.062 182.221C170.365 183.616 168.274 187.103 166.183 187.103C164.789 187.103 163.395 185.708 161.304 180.129C159.213 175.945 158.516 173.155 159.213 171.76C159.91 170.366 162.698 171.063 165.486 171.063C169.668 171.063 172.456 171.76 173.153 173.853Z" fill="#1694A9"/>
<path d="M173.153 161.997C174.547 159.905 173.153 157.116 171.062 153.629C170.365 152.234 168.274 148.747 166.183 148.747C164.789 148.747 163.395 150.142 161.304 155.721C159.213 159.905 158.516 162.695 159.213 164.09C159.91 165.484 162.698 164.787 165.486 164.787C169.668 164.787 172.456 164.09 173.153 161.997Z" fill="#1694A9"/>
<path d="M195.456 183.616C197.547 182.222 200.335 183.617 203.82 185.709C205.214 186.406 208.698 188.498 208.698 190.591C208.698 191.985 207.305 193.38 201.729 195.472C197.547 197.565 194.759 198.262 193.365 197.565C191.971 196.867 192.668 194.078 192.668 191.288C192.668 187.104 193.365 184.663 195.456 183.616Z" fill="#1694A9"/>
<path d="M183.605 183.616C181.514 182.222 178.726 183.617 175.241 185.709C173.847 186.406 170.362 188.498 170.362 190.591C170.362 191.985 171.756 193.38 177.332 195.472C181.514 197.565 184.302 198.262 185.696 197.565C187.09 196.867 186.393 194.078 186.393 191.288C186.393 187.104 185.696 184.663 183.605 183.616Z" fill="#1694A9"/>
<path d="M205.909 173.155C204.515 175.248 205.909 178.037 208 181.524C208.697 182.919 210.788 186.406 212.879 186.406C214.273 186.406 215.667 185.011 217.758 179.432C219.849 175.248 220.546 172.458 219.849 171.063C219.152 169.668 216.364 170.366 213.576 170.366C209.394 171.063 206.606 171.761 205.909 173.155Z" fill="#1694A9"/>
<path d="M205.909 161.997C204.515 159.905 205.909 157.116 208 153.629C208.697 152.234 210.788 148.747 212.879 148.747C214.273 148.747 215.667 150.142 217.758 155.721C219.849 159.905 220.546 162.695 219.849 164.09C219.152 165.484 216.364 164.787 213.576 164.787C209.394 164.09 206.606 163.741 205.909 161.997Z" fill="#1694A9"/>
<path d="M189.879 178.734C196.038 178.734 201.031 173.739 201.031 167.576C201.031 161.413 196.038 156.418 189.879 156.418C183.721 156.418 178.728 161.413 178.728 167.576C178.728 173.739 183.721 178.734 189.879 178.734Z" fill="white"/>
<path d="M139.697 194.078C135.457 185.91 133.186 176.862 133.064 167.659C132.943 158.456 134.976 149.352 139 141.075" stroke="#4F4F4F" stroke-width="2.5" stroke-miterlimit="10"/>
<path d="M143.88 132.009L131.334 139.68L144.577 146.654L143.88 132.009Z" fill="#4F4F4F"/>
<path d="M148.759 127.825C158.357 118.175 171.084 112.274 184.647 111.183C198.209 110.093 211.715 113.886 222.729 121.879C233.744 129.871 241.543 141.538 244.721 154.775C247.9 168.013 246.248 181.951 240.064 194.078" stroke="#4F4F4F" stroke-width="2.5" stroke-miterlimit="10"/>
<path d="M235.881 201.749L235.184 187.104L248.427 193.38L235.881 201.749Z" fill="#4F4F4F"/>
<path d="M125.059 136.89H101.362V138.285H125.059V136.89Z" fill="#BDBDBD"/>
<path d="M119.485 145.26H95.7872V146.654H119.485V145.26Z" fill="#BDBDBD"/>
<path d="M116.697 153.628H93V155.023H116.697V153.628Z" fill="#BDBDBD"/>
<path d="M122.97 162.695H99.2722V164.09H122.97V162.695Z" fill="#BDBDBD"/>
<defs>
<filter id="filter0_f" x="33" y="26" width="283" height="285" filterUnits="userSpaceOnUse" color-interpolation-filters="sRGB">
<feFlood flood-opacity="0" result="BackgroundImageFix"/>
<feBlend mode="normal" in="SourceGraphic" in2="BackgroundImageFix" result="shape"/>
<feGaussianBlur stdDeviation="2" result="effect1_foregroundBlur"/>
</filter>
<filter id="filter1_d" x="49" y="44" width="250" height="252" filterUnits="userSpaceOnUse" color-interpolation-filters="sRGB">
<feFlood flood-opacity="0" result="BackgroundImageFix"/>
<feColorMatrix in="SourceAlpha" type="matrix" values="0 0 0 0 0 0 0 0 0 0 0 0 0 0 0 0 0 0 127 0"/>
<feMorphology radius="9" operator="erode" in="SourceAlpha" result="effect1_dropShadow"/>
<feOffset dy="4"/>
<feGaussianBlur stdDeviation="12.5"/>
<feColorMatrix type="matrix" values="0 0 0 0 0.479601 0 0 0 0 0.576672 0 0 0 0 0.920833 0 0 0 0.71 0"/>
<feBlend mode="normal" in2="BackgroundImageFix" result="effect1_dropShadow"/>
<feBlend mode="normal" in="SourceGraphic" in2="effect1_dropShadow" result="shape"/>
</filter>
<filter id="filter2_d" x="59" y="60" width="230" height="232" filterUnits="userSpaceOnUse" color-interpolation-filters="sRGB">
<feFlood flood-opacity="0" result="BackgroundImageFix"/>
<feColorMatrix in="SourceAlpha" type="matrix" values="0 0 0 0 0 0 0 0 0 0 0 0 0 0 0 0 0 0 127 0"/>
<feMorphology radius="1" operator="erode" in="SourceAlpha" result="effect1_dropShadow"/>
<feOffset dy="10"/>
<feGaussianBlur stdDeviation="14"/>
<feColorMatrix type="matrix" values="0 0 0 0 0.8 0 0 0 0 0.803922 0 0 0 0 0.913725 0 0 0 1 0"/>
<feBlend mode="normal" in2="BackgroundImageFix" result="effect1_dropShadow"/>
<feBlend mode="normal" in="SourceGraphic" in2="effect1_dropShadow" result="shape"/>
</filter>
<radialGradient id="paint0_radial" cx="0" cy="0" r="1" gradientUnits="userSpaceOnUse" gradientTransform="translate(174.5 168.5) rotate(89.809) scale(150.001 148.941)">
<stop stop-color="#7A93EB" stop-opacity="0.22"/>
<stop offset="1" stop-color="#7A93EB" stop-opacity="0"/>
</radialGradient>
</defs>
</svg>
